<?xml version="1.0" encoding="utf-8" standalone="no"?>
<!DOCTYPE svg PUBLIC "-//W3C//DTD SVG 1.1//EN"
  "http://www.w3.org/Graphics/SVG/1.1/DTD/svg11.dtd">
<!-- Created with matplotlib (https://matplotlib.org/) -->
<svg height="345.6pt" version="1.1" viewBox="0 0 460.8 345.6" width="460.8pt" xmlns="http://www.w3.org/2000/svg" xmlns:xlink="http://www.w3.org/1999/xlink">
 <metadata>
  <rdf:RDF xmlns:cc="http://creativecommons.org/ns#" xmlns:dc="http://purl.org/dc/elements/1.1/" xmlns:rdf="http://www.w3.org/1999/02/22-rdf-syntax-ns#">
   <cc:Work>
    <dc:type rdf:resource="http://purl.org/dc/dcmitype/StillImage"/>
    <dc:date>2020-12-19T14:48:00.794807</dc:date>
    <dc:format>image/svg+xml</dc:format>
    <dc:creator>
     <cc:Agent>
      <dc:title>Matplotlib v3.3.2, https://matplotlib.org/</dc:title>
     </cc:Agent>
    </dc:creator>
   </cc:Work>
  </rdf:RDF>
 </metadata>
 <defs>
  <style type="text/css">*{stroke-linecap:butt;stroke-linejoin:round;}</style>
 </defs>
 <g id="figure_1">
  <g id="patch_1">
   <path d="M 0 345.6 
L 460.8 345.6 
L 460.8 0 
L 0 0 
z
" style="fill:#ffffff;"/>
  </g>
  <g id="axes_1">
   <g id="patch_2">
    <path d="M 57.6 307.584 
L 414.72 307.584 
L 414.72 41.472 
L 57.6 41.472 
z
" style="fill:#ffffff;"/>
   </g>
   <g id="matplotlib.axis_1">
    <g id="xtick_1">
     <g id="line2d_1">
      <defs>
       <path d="M 0 0 
L 0 3.5 
" id="mb2be221e47" style="stroke:#000000;stroke-width:0.8;"/>
      </defs>
      <g>
       <use style="stroke:#000000;stroke-width:0.8;" x="62.144494" xlink:href="#mb2be221e47" y="307.584"/>
      </g>
     </g>
     <g id="text_1">
      <!-- $\mathdefault{0}$ -->
      <g transform="translate(59.653826 321.502498)scale(0.1 -0.1)">
       <defs>
        <path d="M 42 31.84375 
C 42 37.96875 41.90625 48.421875 37.703125 56.453125 
C 34 63.484375 28.09375 66 22.90625 66 
C 18.09375 66 12 63.78125 8.203125 56.5625 
C 4.203125 49.015625 3.796875 39.671875 3.796875 31.84375 
C 3.796875 26.109375 3.90625 17.375 7 9.734375 
C 11.296875 -0.609375 19 -2 22.90625 -2 
C 27.5 -2 34.5 -0.109375 38.59375 9.4375 
C 41.59375 16.375 42 24.5 42 31.84375 
z
M 22.90625 -0.40625 
C 16.5 -0.40625 12.703125 5.125 11.296875 12.75 
C 10.203125 18.6875 10.203125 27.328125 10.203125 32.953125 
C 10.203125 40.6875 10.203125 47.109375 11.5 53.234375 
C 13.40625 61.78125 19 64.390625 22.90625 64.390625 
C 27 64.390625 32.296875 61.671875 34.203125 53.4375 
C 35.5 47.71875 35.59375 40.984375 35.59375 32.953125 
C 35.59375 26.421875 35.59375 18.375 34.40625 12.453125 
C 32.296875 1.5 26.40625 -0.40625 22.90625 -0.40625 
z
" id="CMR17-48"/>
       </defs>
       <use transform="scale(0.996264)" xlink:href="#CMR17-48"/>
      </g>
     </g>
    </g>
    <g id="xtick_2">
     <g id="line2d_2">
      <g>
       <use style="stroke:#000000;stroke-width:0.8;" x="133.568494" xlink:href="#mb2be221e47" y="307.584"/>
      </g>
     </g>
     <g id="text_2">
      <!-- $\mathdefault{20}$ -->
      <g transform="translate(128.587159 321.502498)scale(0.1 -0.1)">
       <defs>
        <path d="M 41.703125 15.46875 
L 39.90625 15.46875 
C 38.90625 8.390625 38.09375 7.1875 37.703125 6.59375 
C 37.203125 5.796875 30 5.796875 28.59375 5.796875 
L 9.40625 5.796875 
C 13 9.6875 20 16.765625 28.5 24.9375 
C 34.59375 30.71875 41.703125 37.5 41.703125 47.390625 
C 41.703125 59.1875 32.296875 66 21.796875 66 
C 10.796875 66 4.09375 56.296875 4.09375 47.296875 
C 4.09375 43.390625 7 42.890625 8.203125 42.890625 
C 9.203125 42.890625 12.203125 43.484375 12.203125 46.984375 
C 12.203125 50.09375 9.59375 51 8.203125 51 
C 7.59375 51 7 50.890625 6.59375 50.6875 
C 8.5 59.1875 14.296875 63.390625 20.40625 63.390625 
C 29.09375 63.390625 34.796875 56.5 34.796875 47.390625 
C 34.796875 38.703125 29.703125 31.21875 24 24.734375 
L 4.09375 2.296875 
L 4.09375 0 
L 39.296875 0 
z
" id="CMR17-50"/>
       </defs>
       <use transform="scale(0.996264)" xlink:href="#CMR17-50"/>
       <use transform="translate(45.690477 0)scale(0.996264)" xlink:href="#CMR17-48"/>
      </g>
     </g>
    </g>
    <g id="xtick_3">
     <g id="line2d_3">
      <g>
       <use style="stroke:#000000;stroke-width:0.8;" x="204.992494" xlink:href="#mb2be221e47" y="307.584"/>
      </g>
     </g>
     <g id="text_3">
      <!-- $\mathdefault{40}$ -->
      <g transform="translate(200.011159 321.502498)scale(0.1 -0.1)">
       <defs>
        <path d="M 33.59375 64.796875 
C 33.59375 66.890625 33.5 67 31.703125 67 
L 2 19.59375 
L 2 17 
L 27.796875 17 
L 27.796875 7.1875 
C 27.796875 3.59375 27.59375 2.59375 20.59375 2.59375 
L 18.703125 2.59375 
L 18.703125 0 
C 21.90625 0.1875 27.296875 0.1875 30.703125 0.1875 
C 34.09375 0.1875 39.5 0.1875 42.703125 0 
L 42.703125 2.59375 
L 40.796875 2.59375 
C 33.796875 2.59375 33.59375 3.59375 33.59375 7.1875 
L 33.59375 17 
L 43.796875 17 
L 43.796875 19.59375 
L 33.59375 19.59375 
z
M 28.09375 58.171875 
L 28.09375 19.59375 
L 4 19.59375 
z
" id="CMR17-52"/>
       </defs>
       <use transform="scale(0.996264)" xlink:href="#CMR17-52"/>
       <use transform="translate(45.690477 0)scale(0.996264)" xlink:href="#CMR17-48"/>
      </g>
     </g>
    </g>
    <g id="xtick_4">
     <g id="line2d_4">
      <g>
       <use style="stroke:#000000;stroke-width:0.8;" x="276.416494" xlink:href="#mb2be221e47" y="307.584"/>
      </g>
     </g>
     <g id="text_4">
      <!-- $\mathdefault{60}$ -->
      <g transform="translate(271.435159 321.502498)scale(0.1 -0.1)">
       <defs>
        <path d="M 10.59375 34.34375 
C 10.59375 58 21.796875 63.6875 28.296875 63.6875 
C 30.40625 63.6875 35.5 63.265625 37.5 59.09375 
C 35.90625 59.09375 32.90625 59.09375 32.90625 55.59375 
C 32.90625 52.890625 35.09375 52 36.5 52 
C 37.40625 52 40.09375 52.390625 40.09375 55.796875 
C 40.09375 62.296875 35.09375 66 28.203125 66 
C 16.296875 66 3.796875 53.296875 3.796875 31.421875 
C 3.796875 4.015625 15.09375 -2 23.09375 -2 
C 32.796875 -2 42 6.734375 42 20.234375 
C 42 32.828125 33.90625 42 23.703125 42 
C 17.59375 42 13.09375 37.96875 10.59375 30.921875 
z
M 23.09375 0.390625 
C 10.796875 0.390625 10.796875 18.9375 10.796875 22.65625 
C 10.796875 29.90625 14.203125 40.390625 23.5 40.390625 
C 25.203125 40.390625 30.09375 40.390625 33.40625 33.4375 
C 35.203125 29.515625 35.203125 25.375 35.203125 20.34375 
C 35.203125 14.90625 35.203125 10.875 33.09375 6.84375 
C 30.90625 2.703125 27.703125 0.390625 23.09375 0.390625 
z
" id="CMR17-54"/>
       </defs>
       <use transform="scale(0.996264)" xlink:href="#CMR17-54"/>
       <use transform="translate(45.690477 0)scale(0.996264)" xlink:href="#CMR17-48"/>
      </g>
     </g>
    </g>
    <g id="xtick_5">
     <g id="line2d_5">
      <g>
       <use style="stroke:#000000;stroke-width:0.8;" x="347.840494" xlink:href="#mb2be221e47" y="307.584"/>
      </g>
     </g>
     <g id="text_5">
      <!-- $\mathdefault{80}$ -->
      <g transform="translate(342.859159 321.502498)scale(0.1 -0.1)">
       <defs>
        <path d="M 27.203125 35.765625 
C 33.5 38.96875 39.90625 43.796875 39.90625 51.53125 
C 39.90625 60.6875 31.09375 66 23 66 
C 13.90625 66 5.90625 59.375 5.90625 50.234375 
C 5.90625 47.71875 6.5 43.390625 10.40625 39.578125 
C 11.40625 38.578125 15.59375 35.5625 18.296875 33.65625 
C 13.796875 31.34375 3.296875 25.8125 3.296875 14.765625 
C 3.296875 4.40625 13.09375 -2 22.796875 -2 
C 33.5 -2 42.5 5.71875 42.5 15.96875 
C 42.5 25.109375 36.40625 29.328125 32.40625 32.046875 
z
M 14.09375 44.609375 
C 13.296875 45.109375 9.296875 48.21875 9.296875 52.9375 
C 9.296875 59.078125 15.59375 63.6875 22.796875 63.6875 
C 30.703125 63.6875 36.5 58.0625 36.5 51.53125 
C 36.5 42.1875 26.09375 36.859375 25.59375 36.859375 
C 25.5 36.859375 25.40625 36.859375 24.59375 37.46875 
z
M 32.5 24 
C 34 22.90625 38.796875 19.578125 38.796875 13.453125 
C 38.796875 6.015625 31.40625 0.390625 23 0.390625 
C 13.90625 0.390625 7 6.921875 7 14.859375 
C 7 22.796875 13.09375 29.4375 20 32.546875 
z
" id="CMR17-56"/>
       </defs>
       <use transform="scale(0.996264)" xlink:href="#CMR17-56"/>
       <use transform="translate(45.690477 0)scale(0.996264)" xlink:href="#CMR17-48"/>
      </g>
     </g>
    </g>
    <g id="text_6">
     <!-- Beginning of period bank balances -->
     <g transform="translate(160.914218 334.358175)scale(0.1 -0.1)">
      <defs>
       <path d="M 5.203125 68 
L 5.203125 65.390625 
C 12.09375 65.390625 13.203125 65.390625 13.203125 60.890625 
L 13.203125 7.046875 
C 13.203125 2.59375 12.09375 2.59375 5.203125 2.59375 
L 5.203125 0 
L 39.59375 0 
C 52.40625 0 60.703125 9.03125 60.703125 18.046875 
C 60.703125 26.96875 52.5 34.59375 41.796875 35.296875 
C 51.40625 37.1875 58.09375 43.59375 58.09375 51.1875 
C 58.09375 59.5 49.90625 68 37 68 
z
M 19.5 36 
L 19.5 61.5 
C 19.5 64.890625 19.703125 65.390625 23.703125 65.390625 
L 36.5 65.390625 
C 46.40625 65.390625 50.796875 57.390625 50.796875 51.1875 
C 50.796875 43.59375 44.703125 36 33.90625 36 
z
M 23.703125 2.59375 
C 19.703125 2.59375 19.5 3.09375 19.5 6.453125 
L 19.5 34.390625 
L 38 34.390625 
C 48.296875 34.390625 53.296875 25.375 53.296875 18.140625 
C 53.296875 10.90625 47.59375 2.59375 36.703125 2.59375 
z
" id="CMR17-66"/>
       <path d="M 38.09375 23.484375 
C 38.5 23.890625 38.5 24.09375 38.5 25.09375 
C 38.5 35.171875 33.09375 44 21.703125 44 
C 11.09375 44 2.703125 33.984375 2.703125 21.78125 
C 2.703125 8.65625 12.203125 -1 22.796875 -1 
C 34 -1 38.40625 9.671875 38.40625 11.796875 
C 38.40625 12.5 37.796875 12.5 37.59375 12.5 
C 36.90625 12.5 36.796875 12.296875 36.40625 11.078125 
C 34.203125 4.21875 28.703125 0.796875 23.5 0.796875 
C 19.203125 0.796875 14.90625 3.21875 12.203125 7.65625 
C 9.09375 12.796875 9.09375 18.75 9.09375 23.484375 
z
M 9.203125 25 
C 9.90625 39.234375 17.59375 42.390625 21.59375 42.390625 
C 28.40625 42.390625 33 36.0625 33.09375 25 
z
" id="CMR17-101"/>
       <path d="M 11.09375 18.203125 
C 13 16.6875 16.296875 15 20.296875 15 
C 28.203125 15 35 21.234375 35 29.609375 
C 35 32.234375 34.203125 36.265625 31.203125 39.390625 
C 34 42.390625 38.09375 43.390625 40.40625 43.390625 
C 40.796875 43.390625 41.40625 43.390625 41.90625 43.09375 
C 41.5 42.984375 40.59375 42.59375 40.59375 40.984375 
C 40.59375 39.6875 41.5 38.796875 42.796875 38.796875 
C 44.296875 38.796875 45.09375 39.796875 45.09375 41.09375 
C 45.09375 42.984375 43.59375 45 40.40625 45 
C 36.40625 45 32.90625 43.09375 30.09375 40.484375 
C 27.09375 43.1875 23.5 44.1875 20.296875 44.1875 
C 12.40625 44.1875 5.59375 37.984375 5.59375 29.609375 
C 5.59375 23.859375 8.90625 20.21875 9.90625 19.21875 
C 6.90625 15.6875 6.90625 11.59375 6.90625 11.09375 
C 6.90625 8.5 7.90625 4.6875 11.296875 2.59375 
C 6.09375 1.28125 2 -2.875 2 -8.078125 
C 2 -15.5625 11.5 -21 22.90625 -21 
C 33.90625 -21 43.796875 -15.765625 43.796875 -7.96875 
C 43.796875 6 29 6 21.296875 6 
C 19 6 14.90625 6 14.40625 6.09375 
C 11.296875 6.59375 9.203125 9.390625 9.203125 12.890625 
C 9.203125 13.796875 9.203125 16 11.09375 18.203125 
z
M 20.296875 16.6875 
C 11.5 16.6875 11.5 27.59375 11.5 29.609375 
C 11.5 31.625 11.5 42.484375 20.296875 42.484375 
C 29.09375 42.484375 29.09375 31.625 29.09375 29.609375 
C 29.09375 27.59375 29.09375 16.6875 20.296875 16.6875 
z
M 22.90625 -19.3125 
C 12.90625 -19.3125 6 -13.796875 6 -8.078125 
C 6 -4.859375 7.703125 -1.84375 9.90625 -0.171875 
C 12.40625 1.59375 13.40625 1.59375 20.203125 1.59375 
C 28.40625 1.59375 39.796875 1.59375 39.796875 -8.078125 
C 39.796875 -13.796875 32.90625 -19.3125 22.90625 -19.3125 
z
" id="CMR17-103"/>
       <path d="M 15.5 61.890625 
C 15.5 64.09375 13.703125 66 11.40625 66 
C 9.203125 66 7.296875 64.1875 7.296875 61.890625 
C 7.296875 59.6875 9.09375 57.796875 11.40625 57.796875 
C 13.59375 57.796875 15.5 59.59375 15.5 61.890625 
z
M 3.796875 42.890625 
L 3.796875 40.296875 
C 9.40625 40.296875 10.203125 39.6875 10.203125 34.859375 
L 10.203125 6.921875 
C 10.203125 3.09375 9.796875 2.59375 3.40625 2.59375 
L 3.40625 0 
C 5.796875 0.1875 10.09375 0.1875 12.59375 0.1875 
C 15 0.1875 19.09375 0.1875 21.40625 0 
L 21.40625 2.59375 
C 15.5 2.59375 15.296875 3.203125 15.296875 6.8125 
L 15.296875 44 
z
" id="CMR17-105"/>
       <path d="M 41.5 30.53125 
C 41.5 35.65625 40.5 44 28.703125 44 
C 20.796875 44 16.703125 37.875 15.203125 33.84375 
L 15.09375 33.84375 
L 15.09375 44 
L 3.296875 42.890625 
L 3.296875 40.28125 
C 9.203125 40.28125 10.09375 39.6875 10.09375 34.859375 
L 10.09375 6.921875 
C 10.09375 3.09375 9.703125 2.59375 3.296875 2.59375 
L 3.296875 0 
C 5.703125 0.1875 10.09375 0.1875 12.703125 0.1875 
C 15.296875 0.1875 19.796875 0.1875 22.203125 0 
L 22.203125 2.59375 
C 15.796875 2.59375 15.40625 3 15.40625 6.921875 
L 15.40625 26.21875 
C 15.40625 35.453125 21 42.390625 28 42.390625 
C 35.40625 42.390625 36.203125 35.765625 36.203125 30.9375 
L 36.203125 6.921875 
C 36.203125 3.09375 35.796875 2.59375 29.40625 2.59375 
L 29.40625 0 
C 31.796875 0.1875 36.203125 0.1875 38.796875 0.1875 
C 41.40625 0.1875 45.90625 0.1875 48.296875 0 
L 48.296875 2.59375 
C 41.90625 2.59375 41.5 3 41.5 6.921875 
z
" id="CMR17-110"/>
       <path d="M 43.09375 21.1875 
C 43.09375 34 33.796875 44 22.90625 44 
C 12 44 2.703125 34 2.703125 21.1875 
C 2.703125 8.59375 12 -1 22.90625 -1 
C 33.796875 -1 43.09375 8.59375 43.09375 21.1875 
z
M 22.90625 0.796875 
C 18.203125 0.796875 14.203125 3.59375 11.90625 7.5 
C 9.40625 12 9.09375 17.59375 9.09375 22 
C 9.09375 26.1875 9.296875 31.390625 11.90625 35.890625 
C 13.90625 39.1875 17.796875 42.390625 22.90625 42.390625 
C 27.40625 42.390625 31.203125 39.890625 33.59375 36.390625 
C 36.703125 31.6875 36.703125 25.09375 36.703125 22 
C 36.703125 18.09375 36.5 12.09375 33.796875 7.296875 
C 31 2.6875 26.703125 0.796875 22.90625 0.796875 
z
" id="CMR17-111"/>
       <path d="M 15.296875 40.390625 
L 26.703125 40.390625 
L 26.703125 43 
L 15.09375 43 
L 15.09375 55.296875 
C 15.09375 63.6875 19.296875 68.390625 23.59375 68.390625 
C 24.90625 68.390625 26.40625 68.171875 27.40625 67.796875 
C 26.59375 67.59375 24.5 66.890625 24.5 64.390625 
C 24.5 61.796875 26.5 61 27.90625 61 
C 29.296875 61 31.296875 61.796875 31.296875 64.390625 
C 31.296875 68.015625 27.703125 70 23.703125 70 
C 18 70 10.203125 65.796875 10.203125 55.09375 
L 10.203125 43 
L 2.203125 43 
L 2.203125 40.390625 
L 10.203125 40.390625 
L 10.203125 6.890625 
C 10.203125 3.09375 9.796875 2.59375 3.40625 2.59375 
L 3.40625 0 
C 5.796875 0.1875 10.40625 0.1875 13 0.1875 
C 15.90625 0.1875 21 0.1875 23.703125 0 
L 23.703125 2.59375 
C 16.5 2.59375 15.296875 2.59375 15.296875 7.09375 
z
" id="CMR17-102"/>
       <path d="M 22 -17.40625 
C 15.59375 -17.40625 15.203125 -17 15.203125 -13.03125 
L 15.203125 5.9375 
C 18.09375 1.703125 22.296875 -1 27.59375 -1 
C 37.59375 -1 47.703125 7.859375 47.703125 21.59375 
C 47.703125 34.3125 39 44 28.703125 44 
C 22.703125 44 17.796875 40.671875 15 36.640625 
L 15 44 
L 3.09375 42.890625 
L 3.09375 40.265625 
C 9 40.265625 9.90625 39.671875 9.90625 34.8125 
L 9.90625 -13.03125 
C 9.90625 -16.890625 9.5 -17.40625 3.09375 -17.40625 
L 3.09375 -20 
C 5.5 -19.8125 9.90625 -19.8125 12.5 -19.8125 
C 15.09375 -19.8125 19.59375 -19.8125 22 -20 
z
M 15.203125 31.484375 
C 15.203125 32.90625 15.203125 35.015625 19.09375 38.765625 
C 19.59375 39.15625 23 42.1875 28 42.1875 
C 35.296875 42.1875 41.296875 33 41.296875 21.5 
C 41.296875 9.984375 34.90625 0.59375 27 0.59375 
C 23.40625 0.59375 19.5 2.3125 16.5 7.046875 
C 15.203125 9.28125 15.203125 9.875 15.203125 11.5 
z
" id="CMR17-112"/>
       <path d="M 15 23.703125 
C 15 33.34375 19.09375 42.390625 26.59375 42.390625 
C 27.296875 42.390625 28 42.296875 28.703125 41.984375 
C 28.703125 41.984375 26.5 41.28125 26.5 38.671875 
C 26.5 36.265625 28.40625 35.265625 29.90625 35.265625 
C 31.09375 35.265625 33.296875 35.96875 33.296875 38.78125 
C 33.296875 41.984375 30.09375 44 26.703125 44 
C 19.09375 44 15.796875 36.5625 14.796875 33.046875 
L 14.703125 33.046875 
L 14.703125 44 
L 3.09375 42.890625 
L 3.09375 40.28125 
C 9 40.28125 9.90625 39.6875 9.90625 34.859375 
L 9.90625 6.921875 
C 9.90625 3.09375 9.5 2.59375 3.09375 2.59375 
L 3.09375 0 
C 5.5 0.1875 10.09375 0.1875 12.703125 0.1875 
C 15.59375 0.1875 20.703125 0.1875 23.40625 0 
L 23.40625 2.59375 
C 16.203125 2.59375 15 2.59375 15 7.109375 
z
" id="CMR17-114"/>
       <path d="M 29.203125 67.890625 
L 29.203125 65.296875 
C 35.09375 65.296875 36 64.703125 36 60.046875 
L 36 37.046875 
C 35.59375 37.546875 31.5 44 23.40625 44 
C 13.203125 44 3.296875 34.8125 3.296875 21.5 
C 3.296875 8.265625 12.59375 -1 22.40625 -1 
C 30.90625 -1 35.296875 5.640625 35.796875 6.34375 
L 35.796875 -1 
L 47.90625 -0.203125 
L 47.90625 2.40625 
C 42 2.40625 41.09375 3.015625 41.09375 7.859375 
L 41.09375 69 
z
M 35.796875 11.90625 
C 35.796875 8.875 34 6.140625 31.703125 4.125 
C 28.296875 1.09375 24.90625 0.59375 23 0.59375 
C 20.09375 0.59375 9.703125 2.109375 9.703125 21.390625 
C 9.703125 41.1875 21.296875 42.390625 23.90625 42.390625 
C 28.5 42.390625 32.203125 39.765625 34.5 36.140625 
C 35.796875 34.015625 35.796875 33.703125 35.796875 31.890625 
z
" id="CMR17-100"/>
       <path d="M 15 69 
L 3.09375 67.890625 
L 3.09375 65.296875 
C 9 65.296875 9.90625 64.703125 9.90625 60.046875 
L 9.90625 -0.203125 
L 11.703125 -0.203125 
L 14.59375 6.953125 
C 17.5 2.203125 21.796875 -1 27.59375 -1 
C 37.59375 -1 47.703125 7.859375 47.703125 21.59375 
C 47.703125 34.515625 38.703125 44 28.59375 44 
C 22.40625 44 18 40.671875 15 36.734375 
z
M 15.203125 31.59375 
C 15.203125 33.40625 15.203125 33.703125 16.59375 35.828125 
C 20.5 41.890625 26.09375 42.390625 28 42.390625 
C 31 42.390625 41.296875 40.78125 41.296875 21.6875 
C 41.296875 1.703125 29.5 0.59375 27.09375 0.59375 
C 24 0.59375 19.5 1.796875 16.296875 7.65625 
C 15.203125 9.578125 15.203125 9.78125 15.203125 11.59375 
z
" id="CMR17-98"/>
       <path d="M 36 25.875 
C 36 32 36 35.546875 31.796875 39.59375 
C 28.09375 42.984375 23.796875 44 20.40625 44 
C 12.5 44 6.796875 37.625 6.796875 30.890625 
C 6.796875 27.1875 9.796875 27 10.40625 27 
C 11.703125 27 14 27.796875 14 30.59375 
C 14 33.09375 12.09375 34.1875 10.40625 34.1875 
C 10 34.1875 9.5 34.09375 9.203125 34 
C 11.296875 40.53125 16.703125 42.390625 20.203125 42.390625 
C 25.203125 42.390625 30.703125 37.828125 30.703125 29.296875 
L 30.703125 25.5 
C 24.796875 25.296875 17.703125 24.5 12.09375 21.453125 
C 5.796875 17.921875 4 12.84375 4 9 
C 4 1.203125 13 -1 18.296875 -1 
C 23.796875 -1 28.90625 2.109375 31.09375 7.890625 
C 31.296875 3.421875 34.09375 -0.609375 38.5 -0.609375 
C 40.59375 -0.609375 45.90625 0.796875 45.90625 8.796875 
L 45.90625 14.46875 
L 44.09375 14.46875 
L 44.09375 8.703125 
C 44.09375 2.515625 41.40625 1.703125 40.09375 1.703125 
C 36 1.703125 36 6.96875 36 11.4375 
z
M 30.703125 13.859375 
C 30.703125 5.046875 24.5 0.59375 19 0.59375 
C 14 0.59375 10.09375 4.34375 10.09375 9 
C 10.09375 12.046875 11.40625 17.40625 17.203125 20.65625 
C 22 23.390625 27.5 23.796875 30.703125 24 
z
" id="CMR17-97"/>
       <path d="M 26.09375 26.234375 
C 26 26.4375 25.5 27.03125 25.5 27.328125 
C 25.5 27.53125 32.59375 33.984375 33.5 34.78125 
C 39.203125 39.5625 42.796875 40.046875 45.40625 40.15625 
L 45.40625 42.734375 
C 44.796875 42.734375 44.59375 42.734375 44.5 42.640625 
L 39.59375 42.53125 
C 36.796875 42.53125 32.5 42.53125 29.796875 42.734375 
L 29.796875 40.15625 
C 31.203125 40.046875 32.203125 39.265625 32.203125 37.859375 
C 32.203125 35.875 30.203125 33.984375 30.09375 33.984375 
L 15 20.28125 
L 15 69 
L 3.09375 67.890625 
L 3.09375 65.296875 
C 9 65.296875 9.90625 64.703125 9.90625 59.921875 
L 9.90625 6.859375 
C 9.90625 3.09375 9.5 2.59375 3.09375 2.59375 
L 3.09375 0 
C 5.5 0.1875 9.90625 0.1875 12.40625 0.1875 
C 14.90625 0.1875 19.296875 0.1875 21.703125 0 
L 21.703125 2.59375 
C 15.296875 2.59375 14.90625 2.984375 14.90625 6.859375 
L 14.90625 17.796875 
L 21.796875 24.0625 
L 31.90625 9.15625 
C 33.09375 7.359375 34.09375 5.96875 34.09375 4.671875 
C 34.09375 2.890625 32.296875 2.59375 31.09375 2.59375 
L 31.09375 0 
C 33.5 0.1875 37.796875 0.1875 40.296875 0.1875 
C 42.09375 0.1875 45.796875 0.09375 47.5 0 
L 47.5 2.59375 
C 42.796875 2.59375 41.703125 3.484375 38.703125 7.859375 
z
" id="CMR17-107"/>
       <path d="M 15.296875 69 
L 3.40625 67.890625 
L 3.40625 65.296875 
C 9.296875 65.296875 10.203125 64.703125 10.203125 59.921875 
L 10.203125 6.859375 
C 10.203125 3.09375 9.796875 2.59375 3.40625 2.59375 
L 3.40625 0 
C 5.796875 0.1875 10.203125 0.1875 12.703125 0.1875 
C 15.296875 0.1875 19.703125 0.1875 22.09375 0 
L 22.09375 2.59375 
C 15.703125 2.59375 15.296875 2.984375 15.296875 6.859375 
z
" id="CMR17-108"/>
       <path d="M 34.90625 35 
C 33 35 30.203125 35 30.203125 31.484375 
C 30.203125 28.6875 32.5 27.890625 33.796875 27.890625 
C 34.5 27.890625 37.40625 28.1875 37.40625 31.6875 
C 37.40625 38.6875 30.59375 44 22.90625 44 
C 12.296875 44 3.296875 34.390625 3.296875 21.546875 
C 3.296875 8.140625 12.703125 -1 22.90625 -1 
C 35.296875 -1 38.40625 10.5625 38.40625 11.671875 
C 38.40625 12.078125 38.296875 12.375 37.59375 12.375 
C 36.90625 12.375 36.796875 12.28125 36.40625 10.96875 
C 33.796875 2.8125 28.09375 0.796875 23.796875 0.796875 
C 17.40625 0.796875 9.703125 6.734375 9.703125 21.640625 
C 9.703125 36.84375 17.09375 42.1875 23 42.1875 
C 26.90625 42.1875 32.703125 40.34375 34.90625 35 
z
" id="CMR17-99"/>
       <path d="M 30.90625 42 
C 30.90625 43.796875 30.796875 43.890625 30.203125 43.890625 
C 29.796875 43.890625 29.703125 43.796875 28.5 42.296875 
C 28.203125 41.890625 27.296875 40.890625 27 40.5 
C 23.796875 43.890625 19.296875 44 17.59375 44 
C 6.5 44 2.5 38.1875 2.5 32.390625 
C 2.5 23.390625 12.703125 21.296875 15.59375 20.6875 
C 21.90625 19.390625 24.09375 19 26.203125 17.1875 
C 27.5 16 29.703125 13.796875 29.703125 10.1875 
C 29.703125 6 27.296875 0.59375 18.09375 0.59375 
C 9.40625 0.59375 6.296875 7.1875 4.5 16 
C 4.203125 17.390625 4.203125 17.5 3.40625 17.5 
C 2.59375 17.5 2.5 17.390625 2.5 15.390625 
L 2.5 1 
C 2.5 -0.8125 2.59375 -0.90625 3.203125 -0.90625 
C 3.703125 -0.90625 3.796875 -0.8125 4.296875 0 
C 4.90625 0.890625 6.40625 3.296875 7 4.296875 
C 9 1.59375 12.5 -1 18.09375 -1 
C 28 -1 33.296875 4.390625 33.296875 12.1875 
C 33.296875 17.296875 30.59375 20 29.296875 21.1875 
C 26.296875 24.296875 22.796875 25 18.59375 25.796875 
C 13.09375 27 6.09375 28.390625 6.09375 34.5 
C 6.09375 37.09375 7.5 42.59375 17.59375 42.59375 
C 28.296875 42.59375 28.90625 32.59375 29.09375 29.390625 
C 29.203125 28.890625 29.703125 28.796875 30 28.796875 
C 30.90625 28.796875 30.90625 29.09375 30.90625 30.796875 
z
" id="CMR17-115"/>
      </defs>
      <use transform="scale(0.996264)" xlink:href="#CMR17-66"/>
      <use transform="translate(65.188754 0)scale(0.996264)" xlink:href="#CMR17-101"/>
      <use transform="translate(105.674415 0)scale(0.996264)" xlink:href="#CMR17-103"/>
      <use transform="translate(151.364892 0)scale(0.996264)" xlink:href="#CMR17-105"/>
      <use transform="translate(176.235951 0)scale(0.996264)" xlink:href="#CMR17-110"/>
      <use transform="translate(227.13132 0)scale(0.996264)" xlink:href="#CMR17-110"/>
      <use transform="translate(278.02669 0)scale(0.996264)" xlink:href="#CMR17-105"/>
      <use transform="translate(302.897749 0)scale(0.996264)" xlink:href="#CMR17-110"/>
      <use transform="translate(353.793118 0)scale(0.996264)" xlink:href="#CMR17-103"/>
      <use transform="translate(429.559562 0)scale(0.996264)" xlink:href="#CMR17-111"/>
      <use transform="translate(475.250039 0)scale(0.996264)" xlink:href="#CMR17-102"/>
      <use transform="translate(532.799518 0)scale(0.996264)" xlink:href="#CMR17-112"/>
      <use transform="translate(586.297326 0)scale(0.996264)" xlink:href="#CMR17-101"/>
      <use transform="translate(626.782987 0)scale(0.996264)" xlink:href="#CMR17-114"/>
      <use transform="translate(662.063754 0)scale(0.996264)" xlink:href="#CMR17-105"/>
      <use transform="translate(686.934813 0)scale(0.996264)" xlink:href="#CMR17-111"/>
      <use transform="translate(735.227729 0)scale(0.996264)" xlink:href="#CMR17-100"/>
      <use transform="translate(816.199065 0)scale(0.996264)" xlink:href="#CMR17-98"/>
      <use transform="translate(867.094435 0)scale(0.996264)" xlink:href="#CMR17-97"/>
      <use transform="translate(912.784912 0)scale(0.996264)" xlink:href="#CMR17-110"/>
      <use transform="translate(963.680282 0)scale(0.996264)" xlink:href="#CMR17-107"/>
      <use transform="translate(1042.049164 0)scale(0.996264)" xlink:href="#CMR17-98"/>
      <use transform="translate(1092.944534 0)scale(0.996264)" xlink:href="#CMR17-97"/>
      <use transform="translate(1138.635011 0)scale(0.996264)" xlink:href="#CMR17-108"/>
      <use transform="translate(1163.506069 0)scale(0.996264)" xlink:href="#CMR17-97"/>
      <use transform="translate(1209.196546 0)scale(0.996264)" xlink:href="#CMR17-110"/>
      <use transform="translate(1260.091916 0)scale(0.996264)" xlink:href="#CMR17-99"/>
      <use transform="translate(1300.577577 0)scale(0.996264)" xlink:href="#CMR17-101"/>
      <use transform="translate(1341.063237 0)scale(0.996264)" xlink:href="#CMR17-115"/>
     </g>
    </g>
   </g>
   <g id="matplotlib.axis_2">
    <g id="ytick_1">
     <g id="line2d_6">
      <defs>
       <path d="M 0 0 
L -3.5 0 
" id="m628489d371" style="stroke:#000000;stroke-width:0.8;"/>
      </defs>
      <g>
       <use style="stroke:#000000;stroke-width:0.8;" x="57.6" xlink:href="#m628489d371" y="307.584"/>
      </g>
     </g>
     <g id="text_7">
      <!-- $\mathdefault{0.0}$ -->
      <g transform="translate(37.869921 311.043249)scale(0.1 -0.1)">
       <defs>
        <path d="M 18.40625 4.796875 
C 18.40625 7.6875 16 9.6875 13.59375 9.6875 
C 10.703125 9.6875 8.703125 7.296875 8.703125 4.890625 
C 8.703125 2 11.09375 0 13.5 0 
C 16.40625 0 18.40625 2.390625 18.40625 4.796875 
z
" id="CMMI12-58"/>
       </defs>
       <use transform="scale(0.996264)" xlink:href="#CMR17-48"/>
       <use transform="translate(45.690477 0)scale(0.996264)" xlink:href="#CMMI12-58"/>
       <use transform="translate(72.787654 0)scale(0.996264)" xlink:href="#CMR17-48"/>
      </g>
     </g>
    </g>
    <g id="ytick_2">
     <g id="line2d_7">
      <g>
       <use style="stroke:#000000;stroke-width:0.8;" x="57.6" xlink:href="#m628489d371" y="254.3616"/>
      </g>
     </g>
     <g id="text_8">
      <!-- $\mathdefault{0.2}$ -->
      <g transform="translate(37.869921 257.820849)scale(0.1 -0.1)">
       <use transform="scale(0.996264)" xlink:href="#CMR17-48"/>
       <use transform="translate(45.690477 0)scale(0.996264)" xlink:href="#CMMI12-58"/>
       <use transform="translate(72.787654 0)scale(0.996264)" xlink:href="#CMR17-50"/>
      </g>
     </g>
    </g>
    <g id="ytick_3">
     <g id="line2d_8">
      <g>
       <use style="stroke:#000000;stroke-width:0.8;" x="57.6" xlink:href="#m628489d371" y="201.1392"/>
      </g>
     </g>
     <g id="text_9">
      <!-- $\mathdefault{0.4}$ -->
      <g transform="translate(37.869921 204.598449)scale(0.1 -0.1)">
       <use transform="scale(0.996264)" xlink:href="#CMR17-48"/>
       <use transform="translate(45.690477 0)scale(0.996264)" xlink:href="#CMMI12-58"/>
       <use transform="translate(72.787654 0)scale(0.996264)" xlink:href="#CMR17-52"/>
      </g>
     </g>
    </g>
    <g id="ytick_4">
     <g id="line2d_9">
      <g>
       <use style="stroke:#000000;stroke-width:0.8;" x="57.6" xlink:href="#m628489d371" y="147.9168"/>
      </g>
     </g>
     <g id="text_10">
      <!-- $\mathdefault{0.6}$ -->
      <g transform="translate(37.869921 151.376049)scale(0.1 -0.1)">
       <use transform="scale(0.996264)" xlink:href="#CMR17-48"/>
       <use transform="translate(45.690477 0)scale(0.996264)" xlink:href="#CMMI12-58"/>
       <use transform="translate(72.787654 0)scale(0.996264)" xlink:href="#CMR17-54"/>
      </g>
     </g>
    </g>
    <g id="ytick_5">
     <g id="line2d_10">
      <g>
       <use style="stroke:#000000;stroke-width:0.8;" x="57.6" xlink:href="#m628489d371" y="94.6944"/>
      </g>
     </g>
     <g id="text_11">
      <!-- $\mathdefault{0.8}$ -->
      <g transform="translate(37.869921 98.153649)scale(0.1 -0.1)">
       <use transform="scale(0.996264)" xlink:href="#CMR17-48"/>
       <use transform="translate(45.690477 0)scale(0.996264)" xlink:href="#CMMI12-58"/>
       <use transform="translate(72.787654 0)scale(0.996264)" xlink:href="#CMR17-56"/>
      </g>
     </g>
    </g>
    <g id="ytick_6">
     <g id="line2d_11">
      <g>
       <use style="stroke:#000000;stroke-width:0.8;" x="57.6" xlink:href="#m628489d371" y="41.472"/>
      </g>
     </g>
     <g id="text_12">
      <!-- $\mathdefault{1.0}$ -->
      <g transform="translate(37.869921 44.931249)scale(0.1 -0.1)">
       <defs>
        <path d="M 26.59375 63.796875 
C 26.59375 65.890625 26.5 66 25.09375 66 
C 21.203125 61.359375 15.296875 59.890625 9.703125 59.6875 
C 9.40625 59.6875 8.90625 59.6875 8.796875 59.5 
C 8.703125 59.296875 8.703125 59.09375 8.703125 57 
C 11.796875 57 17 57.59375 21 59.984375 
L 21 7.296875 
C 21 3.796875 20.796875 2.59375 12.203125 2.59375 
L 9.203125 2.59375 
L 9.203125 0 
C 14 0.09375 19 0.1875 23.796875 0.1875 
C 28.59375 0.1875 33.59375 0.09375 38.40625 0 
L 38.40625 2.59375 
L 35.40625 2.59375 
C 26.796875 2.59375 26.59375 3.6875 26.59375 7.296875 
z
" id="CMR17-49"/>
       </defs>
       <use transform="scale(0.996264)" xlink:href="#CMR17-49"/>
       <use transform="translate(45.690477 0)scale(0.996264)" xlink:href="#CMMI12-58"/>
       <use transform="translate(72.787654 0)scale(0.996264)" xlink:href="#CMR17-48"/>
      </g>
     </g>
    </g>
    <g id="text_13">
     <!-- Marginal propensity to consume -->
     <g transform="translate(31.932743 244.903131)rotate(-90)scale(0.1 -0.1)">
      <defs>
       <path d="M 20.90625 66.390625 
C 20.296875 67.890625 20.203125 68 18.09375 68 
L 5.296875 68 
L 5.296875 65.390625 
C 12.203125 65.390625 13.296875 65.390625 13.296875 60.90625 
L 13.296875 9.75 
C 13.296875 7.265625 13.296875 2.59375 5.296875 2.59375 
L 5.296875 0 
C 7.59375 0.1875 11.796875 0.1875 14.296875 0.1875 
C 16.796875 0.1875 21 0.1875 23.296875 0 
L 23.296875 2.59375 
C 15.296875 2.59375 15.296875 7.265625 15.296875 9.75 
L 15.296875 64.984375 
L 15.40625 64.984375 
L 38.90625 1.59375 
C 39.296875 0.59375 39.5 0 40.296875 0 
C 41.09375 0 41.296875 0.59375 41.703125 1.59375 
L 65.40625 65.484375 
L 65.5 65.484375 
L 65.5 7.078125 
C 65.5 2.59375 64.40625 2.59375 57.5 2.59375 
L 57.5 0 
C 60.203125 0.1875 65.59375 0.1875 68.5 0.1875 
C 71.40625 0.1875 76.90625 0.1875 79.59375 0 
L 79.59375 2.59375 
C 72.703125 2.59375 71.59375 2.59375 71.59375 7.078125 
L 71.59375 60.90625 
C 71.59375 65.390625 72.703125 65.390625 79.59375 65.390625 
L 79.59375 68 
L 66.90625 68 
C 64.796875 68 64.703125 67.890625 64.09375 66.390625 
L 42.5 8.0625 
z
" id="CMR17-77"/>
       <path d="M 15.09375 40.390625 
L 29.09375 40.390625 
L 29.09375 43 
L 15.09375 43 
L 15.09375 62 
L 13.296875 62 
C 13.09375 51.4375 9.59375 42.1875 1.09375 41.984375 
L 1.09375 40.390625 
L 9.796875 40.390625 
L 9.796875 12.15625 
C 9.796875 10.234375 9.796875 -1 21.40625 -1 
C 27.296875 -1 30.703125 4.8125 30.703125 12.25 
L 30.703125 17.984375 
L 28.90625 17.984375 
L 28.90625 12.34375 
C 28.90625 5.421875 26.203125 0.796875 22 0.796875 
C 19.09375 0.796875 15.09375 2.796875 15.09375 11.953125 
z
" id="CMR17-116"/>
       <path d="M 39 34.109375 
C 41.5 40.296875 46 40.390625 47.40625 40.390625 
L 47.40625 43 
C 45.5 42.890625 43 42.796875 41.09375 42.796875 
C 39 42.796875 35.703125 42.796875 33.703125 43 
L 33.703125 40.390625 
C 37.5 40.09375 37.59375 37.25 37.59375 36.4375 
C 37.59375 35.4375 37.40625 34.921875 36.90625 33.71875 
L 26 6.390625 
L 14.09375 35.9375 
C 13.59375 37.15625 13.59375 37.859375 13.59375 37.96875 
C 13.59375 40.1875 15.90625 40.390625 18.296875 40.390625 
L 18.296875 43 
C 15.90625 42.796875 11.59375 42.796875 9.09375 42.796875 
C 6.40625 42.796875 3.203125 42.796875 1 43 
L 1 40.390625 
C 6.40625 40.390625 7 39.890625 8.296875 36.640625 
L 23.203125 -0.484375 
C 18.703125 -12.421875 16.09375 -19.40625 9.796875 -19.40625 
C 8.703125 -19.40625 6.203125 -19.109375 4.40625 -17.28125 
C 6.703125 -17.078125 7.703125 -15.65625 7.703125 -13.9375 
C 7.703125 -12.21875 6.5 -10.703125 4.5 -10.703125 
C 2.296875 -10.703125 1.203125 -12.21875 1.203125 -14.046875 
C 1.203125 -18.09375 5.296875 -21 9.796875 -21 
C 15.59375 -21 19.203125 -15.359375 21.203125 -10.296875 
z
" id="CMR17-121"/>
       <path d="M 29.40625 42.890625 
L 29.40625 40.296875 
C 35.296875 40.296875 36.203125 39.6875 36.203125 34.828125 
L 36.203125 16.453125 
C 36.203125 7.96875 31.703125 0.59375 24.296875 0.59375 
C 16.09375 0.59375 15.40625 5.546875 15.40625 10.796875 
L 15.40625 44 
L 3.296875 42.890625 
L 3.296875 40.296875 
C 7.296875 40.296875 10 40.296875 10.09375 36.25 
L 10.09375 16.859375 
C 10.09375 10.09375 10.09375 5.75 12.703125 2.921875 
C 14 1.609375 16.5 -1 23.703125 -1 
C 32.203125 -1 35.5 6.25 36.296875 8.375 
L 36.40625 8.375 
L 36.40625 -1 
L 48.296875 -0.203125 
L 48.296875 2.40625 
C 42.40625 2.40625 41.5 3.015625 41.5 7.859375 
L 41.5 44 
z
" id="CMR17-117"/>
       <path d="M 67.59375 30.53125 
C 67.59375 35.5625 66.703125 44 54.796875 44 
C 48 44 43.296875 39.375 41.5 33.953125 
L 41.40625 33.953125 
C 40.203125 42.1875 34.296875 44 28.703125 44 
C 20.796875 44 16.703125 37.875 15.203125 33.84375 
L 15.09375 33.84375 
L 15.09375 44 
L 3.296875 42.890625 
L 3.296875 40.28125 
C 9.203125 40.28125 10.09375 39.6875 10.09375 34.859375 
L 10.09375 6.921875 
C 10.09375 3.09375 9.703125 2.59375 3.296875 2.59375 
L 3.296875 0 
C 5.703125 0.1875 10.09375 0.1875 12.703125 0.1875 
C 15.296875 0.1875 19.796875 0.1875 22.203125 0 
L 22.203125 2.59375 
C 15.796875 2.59375 15.40625 3 15.40625 6.921875 
L 15.40625 26.21875 
C 15.40625 35.453125 21 42.390625 28 42.390625 
C 35.40625 42.390625 36.203125 35.765625 36.203125 30.9375 
L 36.203125 6.921875 
C 36.203125 3.09375 35.796875 2.59375 29.40625 2.59375 
L 29.40625 0 
C 31.796875 0.1875 36.203125 0.1875 38.796875 0.1875 
C 41.40625 0.1875 45.90625 0.1875 48.296875 0 
L 48.296875 2.59375 
C 41.90625 2.59375 41.5 3 41.5 6.921875 
L 41.5 26.21875 
C 41.5 35.453125 47.09375 42.390625 54.09375 42.390625 
C 61.5 42.390625 62.296875 35.765625 62.296875 30.9375 
L 62.296875 6.921875 
C 62.296875 3.09375 61.90625 2.59375 55.5 2.59375 
L 55.5 0 
C 57.90625 0.1875 62.296875 0.1875 64.90625 0.1875 
C 67.5 0.1875 72 0.1875 74.40625 0 
L 74.40625 2.59375 
C 68 2.59375 67.59375 3 67.59375 6.921875 
z
" id="CMR17-109"/>
      </defs>
      <use transform="scale(0.996264)" xlink:href="#CMR17-77"/>
      <use transform="translate(84.686941 0)scale(0.996264)" xlink:href="#CMR17-97"/>
      <use transform="translate(130.377418 0)scale(0.996264)" xlink:href="#CMR17-114"/>
      <use transform="translate(165.658185 0)scale(0.996264)" xlink:href="#CMR17-103"/>
      <use transform="translate(211.348663 0)scale(0.996264)" xlink:href="#CMR17-105"/>
      <use transform="translate(236.219721 0)scale(0.996264)" xlink:href="#CMR17-110"/>
      <use transform="translate(287.115091 0)scale(0.996264)" xlink:href="#CMR17-97"/>
      <use transform="translate(332.805568 0)scale(0.996264)" xlink:href="#CMR17-108"/>
      <use transform="translate(387.752593 0)scale(0.996264)" xlink:href="#CMR17-112"/>
      <use transform="translate(438.647963 0)scale(0.996264)" xlink:href="#CMR17-114"/>
      <use transform="translate(473.92873 0)scale(0.996264)" xlink:href="#CMR17-111"/>
      <use transform="translate(519.619208 0)scale(0.996264)" xlink:href="#CMR17-112"/>
      <use transform="translate(573.117016 0)scale(0.996264)" xlink:href="#CMR17-101"/>
      <use transform="translate(613.602676 0)scale(0.996264)" xlink:href="#CMR17-110"/>
      <use transform="translate(664.498046 0)scale(0.996264)" xlink:href="#CMR17-115"/>
      <use transform="translate(700.299384 0)scale(0.996264)" xlink:href="#CMR17-105"/>
      <use transform="translate(725.170442 0)scale(0.996264)" xlink:href="#CMR17-116"/>
      <use transform="translate(757.848756 0)scale(0.996264)" xlink:href="#CMR17-121"/>
      <use transform="translate(836.217638 0)scale(0.996264)" xlink:href="#CMR17-116"/>
      <use transform="translate(871.498406 0)scale(0.996264)" xlink:href="#CMR17-111"/>
      <use transform="translate(947.26485 0)scale(0.996264)" xlink:href="#CMR17-99"/>
      <use transform="translate(987.75051 0)scale(0.996264)" xlink:href="#CMR17-111"/>
      <use transform="translate(1033.440987 0)scale(0.996264)" xlink:href="#CMR17-110"/>
      <use transform="translate(1084.336357 0)scale(0.996264)" xlink:href="#CMR17-115"/>
      <use transform="translate(1120.137695 0)scale(0.996264)" xlink:href="#CMR17-117"/>
      <use transform="translate(1171.033064 0)scale(0.996264)" xlink:href="#CMR17-109"/>
      <use transform="translate(1247.952654 0)scale(0.996264)" xlink:href="#CMR17-101"/>
     </g>
    </g>
   </g>
   <g id="line2d_12">
    <path clip-path="url(#p7ff0820070)" d="M 62.144494 98.346924 
L 63.338875 121.534139 
L 64.533257 192.639616 
L 65.727638 248.605168 
L 66.922019 270.743738 
L 68.1164 281.112118 
L 69.310782 285.86227 
L 70.505163 288.627471 
L 71.699544 290.264313 
L 72.893926 291.615198 
L 75.282688 293.068154 
L 76.477069 293.675675 
L 78.865832 294.466447 
L 83.643357 295.326741 
L 86.03212 295.685769 
L 90.809645 296.077056 
L 93.198407 296.282799 
L 102.753457 296.685959 
L 109.919745 296.869225 
L 115.891651 296.984804 
L 124.25232 297.081697 
L 130.224227 297.13589 
L 155.306233 297.245376 
L 170.83319 297.264784 
L 225.774728 297.141101 
L 229.357872 297.089622 
L 248.467972 297.027369 
L 250.856735 296.955664 
L 273.549979 296.877994 
L 275.938742 296.799331 
L 304.603892 296.725666 
L 306.992655 296.663672 
L 419.264494 296.589803 
L 419.264494 296.589803 
" style="fill:none;stroke:#1f77b4;stroke-linecap:square;stroke-width:1.5;"/>
   </g>
   <g id="line2d_13">
    <path clip-path="url(#p7ff0820070)" d="M 59.061292 126.252086 
L 60.255674 141.964247 
L 61.450055 160.252864 
L 63.838818 245.999027 
L 65.033199 268.457412 
L 66.22758 278.9733 
L 67.421961 284.797566 
L 68.616343 287.853218 
L 69.810724 289.93979 
L 71.005105 291.401665 
L 73.393868 293.162583 
L 76.977012 294.542109 
L 78.171393 294.935488 
L 84.143299 296.05577 
L 87.726443 296.435518 
L 90.115205 296.698576 
L 99.670256 297.323301 
L 102.059018 297.394441 
L 108.030925 297.66494 
L 111.614068 297.72933 
L 115.197212 297.854579 
L 118.780356 297.91548 
L 122.3635 298.034076 
L 127.141025 298.091852 
L 129.529787 298.148654 
L 137.890456 298.259389 
L 142.667981 298.366412 
L 154.611794 298.469413 
L 158.194938 298.519244 
L 171.333132 298.614886 
L 174.916276 298.66024 
L 191.637614 298.744147 
L 195.220757 298.781522 
L 207.16457 298.814756 
L 208.358951 298.250505 
L 216.71962 298.250505 
L 217.914001 297.141101 
L 237.024102 297.089622 
L 239.412864 297.027369 
L 260.911727 296.955664 
L 263.30049 296.877994 
L 288.382496 296.799331 
L 290.771259 296.725666 
L 340.935272 296.617609 
L 345.712797 296.589803 
L 416.181292 296.589803 
L 416.181292 296.589803 
" style="fill:none;stroke:#ff7f0e;stroke-linecap:square;stroke-width:1.5;"/>
   </g>
   <g id="line2d_14">
    <path clip-path="url(#p7ff0820070)" d="M 58.856404 126.129526 
L 60.050785 141.71898 
L 61.245166 159.896388 
L 63.633929 243.872475 
L 64.82831 267.11514 
L 66.022692 278.728511 
L 67.217073 284.149032 
L 68.411454 287.675289 
L 69.605835 289.778761 
L 70.800217 291.025628 
L 71.994598 292.098324 
L 74.38336 293.529045 
L 77.966504 294.816762 
L 83.938411 295.946886 
L 87.521554 296.33 
L 89.910317 296.595399 
L 99.465367 297.225711 
L 101.85413 297.29749 
L 106.631655 297.504239 
L 109.020417 297.570423 
L 112.603561 297.699201 
L 116.186705 297.761773 
L 119.769849 297.883586 
L 124.547374 297.942893 
L 128.130518 298.058508 
L 134.102424 298.114851 
L 137.685568 298.170248 
L 142.463093 298.278243 
L 154.406906 298.38218 
L 157.990049 298.432464 
L 171.128243 298.528977 
L 174.711387 298.574744 
L 191.432725 298.659417 
L 195.015869 298.697133 
L 226.069782 298.781249 
L 227.264163 297.291962 
L 236.819213 297.291962 
L 238.013595 297.027369 
L 260.706839 296.955664 
L 263.095601 296.877994 
L 288.177608 296.799331 
L 290.566371 296.725666 
L 340.730384 296.617609 
L 345.507909 296.589803 
L 415.976404 296.589803 
L 415.976404 296.589803 
" style="fill:none;stroke:#2ca02c;stroke-linecap:square;stroke-width:1.5;"/>
   </g>
   <g id="line2d_15">
    <path clip-path="url(#p7ff0820070)" d="M 58.749872 126.069177 
L 59.944253 141.598066 
L 61.138634 159.720404 
L 63.527397 243.66004 
L 64.721778 266.956137 
L 65.916159 278.606556 
L 67.110541 284.046732 
L 68.304922 287.586583 
L 69.499303 289.698467 
L 70.693684 290.950427 
L 71.888066 292.02757 
L 74.276828 293.464313 
L 77.859972 294.757538 
L 83.831878 295.892568 
L 87.415022 296.277359 
L 89.803785 296.543925 
L 99.358835 297.177022 
L 101.747597 297.24912 
L 106.525122 297.456788 
L 108.913885 297.523266 
L 112.497029 297.652617 
L 116.080173 297.715469 
L 119.663316 297.837826 
L 124.440842 297.897398 
L 128.023985 298.013531 
L 133.995892 298.070125 
L 136.384654 298.125771 
L 144.745323 298.23425 
L 148.328467 298.28698 
L 159.077898 298.389164 
L 162.661042 298.438378 
L 176.993617 298.532085 
L 180.576761 298.57594 
L 198.49248 298.655025 
L 203.270005 298.688714 
L 225.96325 298.739521 
L 227.157631 298.446039 
L 236.712681 298.446039 
L 237.907062 297.027369 
L 260.600306 296.955664 
L 262.989069 296.877994 
L 288.071076 296.799331 
L 290.459838 296.725666 
L 340.623852 296.617609 
L 345.401377 296.589803 
L 415.869872 296.589803 
L 415.869872 296.589803 
" style="fill:none;stroke:#d62728;stroke-linecap:square;stroke-width:1.5;"/>
   </g>
   <g id="line2d_16">
    <path clip-path="url(#p7ff0820070)" d="M 58.667115 126.023761 
L 59.861497 141.507008 
L 61.055878 159.587766 
L 63.444641 243.499328 
L 64.639022 266.835723 
L 65.833403 277.858774 
L 67.027784 283.9692 
L 68.222166 287.519343 
L 69.416547 289.363065 
L 70.610928 290.893417 
L 71.805309 291.973927 
L 74.194072 293.415232 
L 77.777216 294.712632 
L 83.749122 295.851379 
L 88.526647 296.328568 
L 90.91541 296.590198 
L 99.276079 297.1401 
L 101.664841 297.212439 
L 106.442366 297.420803 
L 108.831129 297.487505 
L 112.414273 297.617291 
L 115.997416 297.680354 
L 119.58056 297.803123 
L 124.358085 297.862897 
L 127.941229 297.979422 
L 133.913135 298.036207 
L 136.301898 298.092041 
L 144.662567 298.200888 
L 148.245711 298.253796 
L 158.995142 298.356327 
L 162.578286 298.405708 
L 176.910861 298.499733 
L 180.494005 298.543737 
L 198.409724 298.623091 
L 203.187249 298.656895 
L 236.629925 298.723536 
L 237.824306 297.581618 
L 248.573737 297.581618 
L 249.768119 296.955664 
L 273.655744 296.877994 
L 276.044507 296.799331 
L 304.709657 296.725666 
L 307.09842 296.663672 
L 415.787115 296.589803 
L 415.787115 296.589803 
" style="fill:none;stroke:#9467bd;stroke-linecap:square;stroke-width:1.5;"/>
   </g>
   <g id="line2d_17">
    <path clip-path="url(#p7ff0820070)" d="M 58.59541 125.985391 
L 59.789791 141.430034 
L 60.984172 159.475571 
L 63.372935 243.362979 
L 64.567316 266.733478 
L 65.761697 277.778828 
L 66.956079 283.903326 
L 68.15046 287.117127 
L 69.344841 289.310629 
L 70.539223 290.844967 
L 71.733604 291.928337 
L 74.122366 293.373517 
L 77.70551 294.674464 
L 82.483035 295.609383 
L 84.871798 295.916367 
L 87.26056 296.203512 
L 100.398754 297.108715 
L 106.370661 297.390215 
L 108.759423 297.457106 
L 112.342567 297.587262 
L 115.925711 297.650505 
L 119.508855 297.773625 
L 124.28638 297.833569 
L 127.869524 297.950427 
L 133.84143 298.007375 
L 136.230192 298.063369 
L 144.590861 298.172528 
L 148.174005 298.225588 
L 158.923437 298.328413 
L 162.50658 298.377936 
L 176.839156 298.472232 
L 180.422299 298.516362 
L 198.338018 298.595945 
L 203.115544 298.629846 
L 236.558219 298.69668 
L 237.7526 298.295532 
L 248.502032 298.295532 
L 249.696413 296.955664 
L 273.584039 296.877994 
L 275.972801 296.799331 
L 304.637952 296.725666 
L 307.026714 296.663672 
L 415.71541 296.589803 
L 415.71541 296.589803 
" style="fill:none;stroke:#8c564b;stroke-linecap:square;stroke-width:1.5;"/>
   </g>
   <g id="line2d_18">
    <path clip-path="url(#p7ff0820070)" d="M 58.529487 125.950883 
L 59.723868 141.360775 
L 60.918249 159.374564 
L 63.307012 241.476409 
L 64.501393 266.641123 
L 65.695774 277.70659 
L 66.890156 283.843793 
L 68.084537 287.064703 
L 69.278918 289.263232 
L 70.473299 290.801171 
L 71.667681 291.887126 
L 74.056443 293.335807 
L 77.639587 294.639958 
L 82.417112 295.577211 
L 84.805875 295.884967 
L 87.194637 296.172837 
L 100.332831 297.080339 
L 106.304737 297.36256 
L 108.6935 297.429622 
L 112.276644 297.560112 
L 115.859788 297.623518 
L 119.442931 297.746954 
L 124.220457 297.807052 
L 127.8036 297.924212 
L 133.775507 297.981307 
L 136.164269 298.037445 
L 145.719319 298.146886 
L 150.496844 298.252216 
L 164.82942 298.352826 
L 168.412564 298.400984 
L 183.93952 298.491611 
L 187.522664 298.533178 
L 216.187814 298.634147 
L 222.159721 298.65665 
L 248.436109 298.681665 
L 249.63049 297.195616 
L 260.379921 297.195616 
L 261.574303 296.877994 
L 289.045072 296.799331 
L 291.433834 296.725666 
L 340.403467 296.617609 
L 345.180992 296.589803 
L 415.649487 296.589803 
L 415.649487 296.589803 
" style="fill:none;stroke:#e377c2;stroke-linecap:square;stroke-width:1.5;"/>
   </g>
   <g id="line2d_19">
    <path clip-path="url(#p7ff0820070)" d="M 58.46639 125.918517 
L 59.660771 141.295786 
L 60.855153 159.279737 
L 63.243915 241.359031 
L 64.438296 265.479229 
L 65.632678 277.638542 
L 66.827059 283.787703 
L 68.02144 287.015306 
L 69.215822 289.21857 
L 70.410203 290.759899 
L 71.604584 291.848289 
L 73.993347 293.300268 
L 77.57649 294.607438 
L 82.354016 295.546889 
L 84.742778 295.855372 
L 87.131541 296.143925 
L 100.269735 297.053595 
L 106.241641 297.336493 
L 108.630403 297.403718 
L 112.213547 297.534523 
L 115.796691 297.598081 
L 119.379835 297.721816 
L 124.15736 297.782059 
L 127.740504 297.899503 
L 133.71241 297.956736 
L 136.101173 298.013011 
L 145.656223 298.122717 
L 150.433748 298.228304 
L 164.766323 298.329159 
L 168.349467 298.377434 
L 183.876424 298.468282 
L 187.459567 298.50995 
L 216.124718 298.611166 
L 222.096624 298.633724 
L 248.373012 298.6588 
L 249.567393 297.781148 
L 260.316825 297.781148 
L 261.511206 296.877994 
L 288.981975 296.799331 
L 291.370738 296.725666 
L 340.34037 296.617609 
L 345.117895 296.589803 
L 415.58639 296.589803 
L 415.58639 296.589803 
" style="fill:none;stroke:#7f7f7f;stroke-linecap:square;stroke-width:1.5;"/>
   </g>
   <g id="line2d_20">
    <path clip-path="url(#p7ff0820070)" d="M 58.404042 125.887147 
L 59.598423 141.232773 
L 60.792804 159.187746 
L 61.987185 197.069058 
L 63.181567 241.244909 
L 64.375948 265.393006 
L 65.570329 277.572317 
L 66.76471 283.733106 
L 67.959092 286.96722 
L 69.153473 289.17509 
L 70.347854 290.719719 
L 71.542235 291.810477 
L 73.930998 293.265666 
L 77.514142 294.575774 
L 82.291667 295.517366 
L 84.680429 295.826556 
L 87.069192 296.115773 
L 100.207386 297.027553 
L 106.179292 297.311112 
L 108.568055 297.378494 
L 112.151199 297.509605 
L 115.734343 297.573313 
L 119.317486 297.697337 
L 124.095011 297.757723 
L 127.678155 297.875442 
L 133.650062 297.932811 
L 136.038824 297.989218 
L 145.593874 298.099183 
L 150.371399 298.205019 
L 164.703975 298.306112 
L 168.287118 298.354502 
L 183.814075 298.445565 
L 187.397219 298.487331 
L 216.062369 298.588787 
L 222.034276 298.611399 
L 248.310664 298.636534 
L 249.505045 298.349674 
L 260.254476 298.349674 
L 261.448858 296.877994 
L 288.919627 296.799331 
L 291.308389 296.725666 
L 341.472403 296.617609 
L 346.249928 296.589803 
L 415.524042 296.589803 
L 415.524042 296.589803 
" style="fill:none;stroke:#bcbd22;stroke-linecap:square;stroke-width:1.5;"/>
   </g>
   <g id="line2d_21">
    <path clip-path="url(#p7ff0820070)" d="M 58.340633 125.855848 
L 59.535015 141.169873 
L 60.729396 159.095878 
L 61.923777 196.944416 
L 63.118159 241.130688 
L 64.31254 265.306652 
L 65.506921 277.505969 
L 66.701302 283.6784 
L 67.895684 286.919034 
L 69.090065 289.131516 
L 70.284446 290.679451 
L 71.478827 291.772581 
L 73.86759 293.230985 
L 77.450734 294.544037 
L 82.228259 295.487773 
L 84.617021 295.797673 
L 87.005784 296.087556 
L 100.143978 297.001449 
L 106.115884 297.28567 
L 108.504647 297.353209 
L 112.087791 297.484628 
L 115.670934 297.548485 
L 119.254078 297.6728 
L 124.031603 297.733328 
L 127.614747 297.851324 
L 133.586654 297.908828 
L 135.975416 297.965367 
L 145.530466 298.075592 
L 150.307991 298.181678 
L 164.640567 298.28301 
L 168.22371 298.331514 
L 183.750667 298.422793 
L 187.333811 298.464658 
L 215.998961 298.566355 
L 221.970868 298.58902 
L 260.191068 298.618416 
L 261.38545 297.157227 
L 274.523644 297.157227 
L 275.718025 296.799331 
L 304.383175 296.725666 
L 306.771938 296.663672 
L 415.460633 296.589803 
L 415.460633 296.589803 
" style="fill:none;stroke:#17becf;stroke-linecap:square;stroke-width:1.5;"/>
   </g>
   <g id="line2d_22">
    <path clip-path="url(#p7ff0820070)" d="M 58.274232 125.823699 
L 59.468613 141.10524 
L 60.662995 159.001433 
L 61.857376 196.816145 
L 63.051757 241.012999 
L 64.246138 265.217617 
L 65.44052 277.437539 
L 66.634901 283.621967 
L 67.829282 286.869322 
L 69.023664 289.086561 
L 70.218045 290.637903 
L 71.412426 291.733481 
L 73.801189 293.195201 
L 77.384332 294.511289 
L 82.161858 295.457236 
L 84.55062 295.767868 
L 86.939383 296.058438 
L 100.077577 296.974511 
L 106.049483 297.259416 
L 108.438246 297.327118 
L 112.021389 297.458852 
L 115.604533 297.522864 
L 119.187677 297.64748 
L 123.965202 297.708153 
L 127.548346 297.826435 
L 133.520252 297.884078 
L 135.909015 297.940755 
L 145.464065 298.051247 
L 150.24159 298.157591 
L 164.574165 298.259169 
L 168.157309 298.307792 
L 183.684266 298.399293 
L 187.267409 298.44126 
L 215.93256 298.543205 
L 221.904466 298.565926 
L 260.124667 298.595393 
L 261.319048 297.723957 
L 274.457242 297.723957 
L 275.651623 296.799331 
L 304.316774 296.725666 
L 306.705536 296.663672 
L 415.394232 296.589803 
L 415.394232 296.589803 
" style="fill:none;stroke:#1f77b4;stroke-linecap:square;stroke-width:1.5;"/>
   </g>
   <g id="line2d_23">
    <path clip-path="url(#p7ff0820070)" d="M 58.202325 125.789584 
L 59.396707 141.036623 
L 60.591088 158.901113 
L 61.785469 196.679749 
L 62.97985 240.887699 
L 64.174232 265.122758 
L 65.368613 277.364608 
L 66.562994 283.089087 
L 67.757375 286.816326 
L 68.951757 289.038632 
L 70.146138 290.593606 
L 71.340519 291.691791 
L 73.729282 293.157046 
L 77.312426 294.47637 
L 82.089951 295.424675 
L 84.478713 295.736086 
L 86.867476 296.027388 
L 100.00567 296.945786 
L 105.977576 297.231418 
L 108.366339 297.299293 
L 111.949482 297.431366 
L 115.532626 297.495541 
L 119.11577 297.620478 
L 123.893295 297.681307 
L 127.476439 297.799894 
L 133.448345 297.857685 
L 135.837108 297.914508 
L 145.392158 298.025286 
L 150.169683 298.131904 
L 164.502258 298.233745 
L 168.085402 298.282494 
L 183.612359 298.374232 
L 187.195503 298.416308 
L 215.860653 298.518518 
L 221.832559 298.541298 
L 260.05276 298.570841 
L 261.247141 298.326584 
L 274.385335 298.326584 
L 275.579717 296.799331 
L 304.244867 296.725666 
L 306.63363 296.663672 
L 415.322325 296.589803 
L 415.322325 296.589803 
" style="fill:none;stroke:#ff7f0e;stroke-linecap:square;stroke-width:1.5;"/>
   </g>
   <g id="line2d_24">
    <path clip-path="url(#p7ff0820070)" d="M 58.120999 125.75184 
L 60.509762 156.532831 
L 61.704143 196.528517 
L 62.898524 240.748578 
L 64.092905 265.017358 
L 65.287287 277.283541 
L 66.481668 283.021081 
L 67.676049 286.7574 
L 68.870431 288.985337 
L 70.064812 290.544348 
L 71.259193 291.645431 
L 73.647956 293.114614 
L 76.036718 294.029822 
L 83.203006 295.599014 
L 87.980531 296.085822 
L 90.369293 296.352748 
L 98.729962 296.838516 
L 105.89625 297.200278 
L 108.285013 297.268346 
L 111.868156 297.400794 
L 115.4513 297.465153 
L 119.034444 297.590445 
L 123.811969 297.651448 
L 127.395113 297.770373 
L 133.367019 297.828329 
L 135.755782 297.885315 
L 145.310832 297.99641 
L 150.088357 298.103334 
L 164.420932 298.205467 
L 168.004076 298.254355 
L 183.531033 298.346357 
L 187.114176 298.388555 
L 215.779327 298.491058 
L 221.751233 298.513904 
L 274.304009 298.545774 
L 275.49839 297.217465 
L 288.636584 297.217465 
L 289.830966 296.725666 
L 341.18936 296.617609 
L 345.966885 296.589803 
L 415.240999 296.589803 
L 415.240999 296.589803 
" style="fill:none;stroke:#2ca02c;stroke-linecap:square;stroke-width:1.5;"/>
   </g>
   <g id="line2d_25">
    <path clip-path="url(#p7ff0820070)" d="M 58.022828 125.707416 
L 59.21721 139.623908 
L 60.411591 156.406488 
L 62.800353 238.760712 
L 63.994735 264.892687 
L 65.189116 276.493861 
L 66.383497 282.940589 
L 67.577878 286.687647 
L 68.77226 288.922244 
L 69.966641 290.48603 
L 71.161022 291.590542 
L 73.549785 293.064373 
L 75.938547 293.982519 
L 83.104835 295.556823 
L 87.88236 296.045237 
L 90.271123 296.313047 
L 98.631791 296.800431 
L 105.798079 297.163403 
L 108.186842 297.231699 
L 111.769985 297.364592 
L 115.353129 297.429166 
L 118.936273 297.554879 
L 123.713798 297.616088 
L 127.296942 297.735414 
L 133.268848 297.793566 
L 135.657611 297.850744 
L 140.435136 297.906975 
L 144.01828 297.962214 
L 153.57333 298.069499 
L 157.156474 298.121405 
L 170.294668 298.221033 
L 173.877812 298.268278 
L 190.599149 298.355688 
L 194.182293 298.394623 
L 235.985638 298.497504 
L 251.512594 298.511192 
L 274.205838 298.513442 
L 275.40022 297.981998 
L 288.538414 297.981998 
L 289.732795 296.725666 
L 341.091189 296.617609 
L 345.868715 296.589803 
L 415.142828 296.589803 
L 415.142828 296.589803 
" style="fill:none;stroke:#d62728;stroke-linecap:square;stroke-width:1.5;"/>
   </g>
   <g id="line2d_26">
    <path clip-path="url(#p7ff0820070)" d="M 57.889013 125.64876 
L 59.083395 139.510188 
L 60.277776 156.239439 
L 62.666538 238.539779 
L 63.86092 263.601737 
L 65.055301 276.363978 
L 66.249682 282.83356 
L 67.444064 286.594881 
L 68.638445 288.838328 
L 69.832826 290.408458 
L 71.027207 291.517527 
L 73.41597 292.997537 
L 75.804732 293.919589 
L 82.97102 295.500691 
L 87.748545 295.991239 
L 90.137308 296.260225 
L 97.303595 296.749758 
L 99.692358 296.825665 
L 105.664264 297.114338 
L 108.053027 297.182938 
L 111.636171 297.316422 
L 115.219314 297.381283 
L 118.802458 297.507557 
L 123.579983 297.569039 
L 127.163127 297.688898 
L 133.135033 297.74731 
L 135.523796 297.804744 
L 140.301321 297.861227 
L 143.884465 297.916713 
L 153.439515 298.02448 
L 157.022659 298.076618 
L 170.160853 298.176694 
L 173.743997 298.224151 
L 190.465334 298.311954 
L 194.048478 298.351065 
L 235.851823 298.454409 
L 251.378779 298.46816 
L 288.404599 298.475015 
L 289.59898 297.209257 
L 305.125936 297.209257 
L 306.320318 296.663672 
L 415.009013 296.589803 
L 415.009013 296.589803 
" style="fill:none;stroke:#9467bd;stroke-linecap:square;stroke-width:1.5;"/>
   </g>
   <g id="line2d_27">
    <path clip-path="url(#p7ff0820070)" d="M 57.6 125.528922 
L 58.794381 139.277601 
L 59.988763 155.897336 
L 61.183144 192.812251 
L 62.377525 238.084413 
L 63.571906 263.253275 
L 64.766288 276.095482 
L 65.960669 282.612196 
L 67.15505 286.036362 
L 68.349431 288.371199 
L 69.543813 290.003449 
L 71.932575 292.153407 
L 75.515719 293.789321 
L 76.7101 294.069082 
L 77.904482 294.46334 
L 81.487625 295.170413 
L 83.876388 295.487905 
L 86.265151 295.784914 
L 99.403344 296.721438 
L 105.375251 297.012747 
L 108.958395 297.081975 
L 113.73592 297.282138 
L 117.319064 297.346423 
L 119.707826 297.409571 
L 123.29097 297.471617 
L 126.874114 297.592579 
L 132.84602 297.651529 
L 135.234783 297.709493 
L 140.012308 297.766496 
L 142.40107 297.822495 
L 153.150502 297.931257 
L 156.733645 297.983877 
L 169.871839 298.084879 
L 173.454983 298.132776 
L 190.176321 298.221393 
L 193.759465 298.260867 
L 235.562809 298.36517 
L 251.089766 298.379048 
L 304.836923 298.398039 
L 306.031304 297.435754 
L 321.558261 297.435754 
L 322.752642 296.617609 
L 414.72 296.589803 
L 414.72 296.589803 
" style="fill:none;stroke:#8c564b;stroke-linecap:square;stroke-width:1.5;"/>
   </g>
   <g id="patch_3">
    <path d="M 57.6 307.584 
L 57.6 41.472 
" style="fill:none;stroke:#000000;stroke-linecap:square;stroke-linejoin:miter;stroke-width:0.8;"/>
   </g>
   <g id="patch_4">
    <path d="M 414.72 307.584 
L 414.72 41.472 
" style="fill:none;stroke:#000000;stroke-linecap:square;stroke-linejoin:miter;stroke-width:0.8;"/>
   </g>
   <g id="patch_5">
    <path d="M 57.6 307.584 
L 414.72 307.584 
" style="fill:none;stroke:#000000;stroke-linecap:square;stroke-linejoin:miter;stroke-width:0.8;"/>
   </g>
   <g id="patch_6">
    <path d="M 57.6 41.472 
L 414.72 41.472 
" style="fill:none;stroke:#000000;stroke-linecap:square;stroke-linejoin:miter;stroke-width:0.8;"/>
   </g>
  </g>
 </g>
 <defs>
  <clipPath id="p7ff0820070">
   <rect height="266.112" width="357.12" x="57.6" y="41.472"/>
  </clipPath>
 </defs>
</svg>
